<?xml version="1.0" standalone="no"?>
<!DOCTYPE svg PUBLIC "-//W3C//DTD SVG 20010904//EN"
 "http://www.w3.org/TR/2001/REC-SVG-20010904/DTD/svg10.dtd">
<svg version="1.0" xmlns="http://www.w3.org/2000/svg"
 width="1280.000000pt" height="1186.000000pt" viewBox="0 0 1280.000000 1186.000000"
 preserveAspectRatio="xMidYMid meet">
<metadata>
Created by potrace 1.15, written by Peter Selinger 2001-2017
</metadata>
<g transform="translate(0.000000,1186.000000) scale(0.100000,-0.100000)"
fill="#000000" stroke="none">
<path d="M6731 11834 c-41 -52 -91 -269 -128 -555 l-16 -126 -151 -6 c-166 -7
-334 -32 -470 -72 -48 -14 -90 -25 -92 -23 -2 2 -24 66 -49 142 -55 167 -111
286 -160 344 -31 36 -43 43 -69 40 -30 -3 -31 -5 -34 -52 -4 -66 19 -165 85
-365 30 -91 56 -170 58 -176 3 -5 -31 -30 -75 -54 -119 -66 -272 -185 -390
-305 -58 -58 -110 -106 -116 -106 -6 0 -51 18 -100 41 -110 51 -252 99 -292
99 -39 0 -65 -25 -56 -54 15 -49 128 -138 262 -205 34 -17 62 -35 62 -40 0 -5
-21 -37 -47 -72 -73 -99 -195 -290 -368 -574 -275 -452 -415 -647 -584 -815
-73 -72 -229 -200 -244 -200 -3 0 -7 10 -10 21 -5 19 -11 21 -60 17 -42 -3
-90 -22 -203 -77 -166 -81 -166 -81 -303 -39 -120 36 -299 147 -389 241 l-33
34 123 79 c287 185 448 331 448 410 0 85 -110 41 -395 -158 -71 -50 -166 -120
-209 -156 l-80 -66 -43 49 c-25 27 -112 129 -195 228 -84 99 -177 208 -208
241 l-55 61 6 55 c11 88 10 198 -2 246 -12 48 -45 79 -72 68 -21 -8 -54 -80
-74 -163 l-16 -68 -66 38 c-126 73 -249 86 -373 39 -76 -28 -105 -53 -118
-101 -21 -78 5 -161 129 -407 l80 -157 -42 -6 c-23 -4 -59 -11 -79 -17 -33 -9
-54 -5 -175 35 -76 25 -143 46 -149 48 -6 2 -30 59 -53 127 -78 228 -156 358
-217 358 -56 0 -52 -94 13 -309 19 -62 33 -114 31 -116 -2 -2 -34 3 -73 11
-38 8 -139 17 -223 21 -128 5 -163 3 -218 -12 -87 -24 -139 -71 -149 -135 -13
-93 33 -177 212 -383 147 -170 228 -297 160 -253 -39 26 -368 175 -462 210
-109 41 -166 51 -194 36 -72 -38 31 -140 262 -261 l112 -59 -52 0 c-67 0 -148
-17 -195 -41 -86 -43 -133 -171 -93 -248 37 -72 113 -114 330 -181 55 -17 117
-42 138 -56 76 -50 86 -148 21 -202 -18 -15 -86 -50 -149 -76 -196 -81 -251
-134 -241 -228 7 -64 21 -87 64 -105 77 -32 216 -20 522 47 96 21 198 40 225
42 44 3 50 1 50 -17 0 -14 -38 -48 -125 -113 -188 -140 -230 -186 -230 -252 0
-48 47 -64 180 -63 226 1 520 75 1013 253 246 89 568 103 882 38 235 -48 478
-151 556 -236 l41 -43 -109 -112 c-574 -593 -932 -1235 -1039 -1863 -25 -140
-24 -444 0 -579 110 -620 570 -1077 1324 -1315 95 -31 102 -34 102 -59 -1 -38
-17 -162 -23 -167 -2 -3 -75 18 -162 46 -87 27 -163 50 -169 50 -11 0 -339
-303 -343 -317 -2 -5 32 -30 74 -58 l76 -50 -74 -21 c-537 -156 -702 -214
-900 -316 -256 -131 -398 -276 -444 -455 -20 -76 -19 -128 5 -262 57 -317 187
-568 373 -719 424 -344 1143 -280 2161 194 254 118 592 302 881 478 120 73
242 189 310 294 162 251 255 606 281 1067 l6 121 216 21 216 21 100 -29 c245
-71 505 -131 751 -174 83 -14 159 -27 170 -30 19 -4 20 -12 20 -292 1 -375 26
-558 115 -824 71 -213 161 -370 289 -502 100 -104 174 -151 447 -289 1092
-552 2003 -828 2658 -805 251 9 411 44 591 132 216 104 361 247 469 463 71
142 135 372 136 489 1 308 -315 535 -1024 737 -121 35 -321 87 -443 117 -123
29 -223 56 -223 60 0 3 14 12 30 19 17 7 33 16 35 20 3 5 -91 77 -208 161
-116 83 -217 156 -222 160 -6 4 -61 -5 -122 -20 l-112 -29 -5 27 c-8 36 -56
410 -56 431 0 13 27 24 128 50 1033 266 1786 822 2006 1481 55 164 69 265 63
464 -4 146 -9 186 -34 285 -97 371 -321 717 -694 1066 -365 343 -804 632
-1462 961 -176 89 -273 143 -283 159 -26 39 -11 69 49 98 112 55 332 81 621
73 276 -7 314 -13 1121 -182 368 -77 529 -73 616 14 36 35 69 115 69 166 0 49
-51 124 -129 190 -118 99 -144 162 -101 245 60 117 189 144 547 115 281 -23
421 -19 487 15 67 34 89 66 94 140 8 114 -47 197 -173 258 -82 40 -187 69
-470 127 -246 50 -292 61 -300 75 -11 17 42 29 258 60 465 66 673 117 796 195
114 71 131 175 37 230 -43 25 -189 65 -240 65 l-28 0 36 40 c41 45 54 83 36
105 -25 31 -111 10 -250 -60 l-75 -38 -54 19 c-61 21 -116 67 -126 107 -12 45
22 85 140 166 61 41 136 101 168 133 76 75 128 182 135 277 4 65 3 70 -26 102
l-30 34 -99 -1 c-124 -2 -205 -26 -571 -168 -390 -153 -506 -182 -545 -138 -9
10 -49 115 -88 232 -84 255 -123 340 -185 409 -63 70 -109 92 -191 92 -81 0
-126 -22 -175 -86 -57 -75 -95 -185 -174 -507 -80 -323 -125 -462 -174 -539
-33 -50 -104 -119 -124 -119 -6 0 -23 24 -38 53 -57 107 -313 416 -426 513
-80 68 -134 96 -175 92 -75 -7 -31 -104 144 -313 92 -110 307 -330 354 -363
16 -11 28 -23 25 -25 -14 -15 -194 -29 -285 -23 -401 27 -949 251 -1156 473
-106 114 -169 231 -284 533 -45 118 -85 222 -89 230 -4 11 13 27 63 57 165
102 247 219 167 239 -29 7 -126 -26 -228 -77 -44 -22 -82 -39 -83 -37 -2 2
-26 38 -54 80 -67 103 -182 222 -275 283 -41 28 -76 53 -76 56 0 3 34 27 77
54 177 112 268 204 261 262 -3 26 -6 28 -49 27 -57 0 -174 -55 -368 -173
l-135 -81 -65 19 c-155 45 -314 69 -509 78 -124 5 -142 8 -137 22 32 104 75
398 75 515 0 157 -45 229 -99 160z"/>
</g>
</svg>
