<?xml version="1.0" standalone="no"?>
<!DOCTYPE svg PUBLIC "-//W3C//DTD SVG 20010904//EN"
 "http://www.w3.org/TR/2001/REC-SVG-20010904/DTD/svg10.dtd">
<svg version="1.0" xmlns="http://www.w3.org/2000/svg"
 width="1280.000000pt" height="640.000000pt" viewBox="0 0 1280.000000 640.000000"
 preserveAspectRatio="xMidYMid meet">
<metadata>
Created by potrace 1.15, written by Peter Selinger 2001-2017
</metadata>
<g transform="translate(0.000000,640.000000) scale(0.100000,-0.100000)"
fill="#000000" stroke="none">
<path d="M2886 5043 c68 -157 82 -209 70 -258 l-7 -27 -41 38 c-50 45 -328
179 -328 158 0 -3 30 -39 66 -80 69 -80 132 -171 154 -224 17 -40 10 -45 -79
-54 -194 -19 -498 -86 -673 -149 -87 -31 -99 -33 -110 -19 -28 33 -143 113
-226 155 -240 124 -586 201 -966 214 l-169 6 7 -144 c20 -415 93 -752 214
-994 32 -65 113 -184 145 -213 l24 -23 -37 -113 c-109 -324 -180 -879 -180
-1409 l0 -128 -37 7 c-64 11 -188 63 -253 105 -219 142 -349 374 -352 631 -1
53 -5 95 -9 92 -15 -9 -68 -153 -83 -226 -90 -437 225 -871 664 -916 l65 -7 3
-72 3 -73 2646 0 2646 0 -7 417 c-9 543 -24 791 -67 1078 -29 199 -90 452
-136 567 l-15 38 44 50 c145 165 256 463 307 826 21 150 44 481 34 498 -8 11
-272 -1 -428 -20 -380 -47 -686 -153 -876 -304 l-71 -57 -77 28 c-167 61 -395
115 -612 145 l-127 17 -12 41 c-20 68 -74 147 -152 222 -77 74 -168 142 -168
125 0 -5 7 -40 16 -78 16 -67 14 -147 -3 -164 -5 -5 -26 14 -51 46 -24 31 -73
80 -110 109 -66 53 -219 143 -228 134 -2 -3 3 -22 12 -44 24 -55 23 -149 0
-202 -21 -47 -31 -52 -41 -22 -13 40 -106 141 -178 191 -71 50 -197 119 -217
119 -6 0 -4 -15 6 -37z"/>
<path d="M9473 5063 c3 -10 22 -56 41 -103 25 -59 36 -101 36 -136 0 -28 -2
-53 -5 -56 -3 -3 -20 9 -38 26 -42 39 -321 177 -332 164 -2 -2 35 -48 81 -103
47 -55 100 -131 120 -170 40 -81 43 -78 -71 -90 -218 -22 -565 -103 -711 -165
l-41 -18 -46 39 c-77 66 -207 142 -318 187 -240 95 -615 162 -913 162 l-99 0
6 -177 c18 -507 146 -937 347 -1167 l29 -33 -30 -86 c-112 -329 -162 -701
-185 -1380 l-6 -178 -32 6 c-238 51 -461 239 -550 466 -38 97 -48 144 -55 259
l-6 105 -22 -41 c-62 -117 -92 -291 -73 -427 24 -179 86 -310 209 -439 125
-132 301 -222 461 -235 l70 -6 0 -73 0 -74 2646 0 2647 0 -6 468 c-3 257 -11
526 -16 597 -34 418 -79 676 -163 936 l-31 95 57 75 c189 248 299 643 322
1161 l7 151 -154 -7 c-520 -23 -955 -147 -1167 -332 -28 -24 -57 -44 -66 -44
-8 0 -38 9 -67 20 -134 53 -429 122 -647 151 -70 9 -95 16 -99 28 -24 77 -83
171 -147 236 -63 64 -175 150 -183 141 -2 -2 3 -29 12 -62 17 -65 20 -161 5
-184 -8 -13 -12 -11 -26 10 -57 86 -265 248 -351 274 l-21 7 19 -51 c25 -67
25 -149 -1 -200 -11 -22 -22 -40 -25 -40 -2 0 -12 14 -21 32 -24 46 -120 144
-184 188 -52 35 -192 110 -206 110 -3 0 -4 -8 -1 -17z"/>
</g>
</svg>
